<svg xmlns="http://www.w3.org/2000/svg" viewBox="0 0 445.96 113.31"><g data-name="图层 2"><g data-name="Layer 1"><path d="M122.63 10.87h6.76V43.7h11.74v6.47h-18.5zm34.31 9.84a11.51 11.51 0 0 1 9.24 4.45v-3.87h6.36v28.88h-6.36V46.3a11.51 11.51 0 0 1-9.24 4.45C149 50.75 143 44 143 35.73s6-15.02 13.94-15.02zm1.16 5.77c-5.15 0-8.61 4.05-8.61 9.25S153 45 158.1 45s8.6-4 8.6-9.24-3.46-9.28-8.6-9.28zm19.39 18.66 15.13-18.08h-14.9v-5.77h23.1v5.08l-15.07 18h15.42v5.78h-23.68zm39.84-24.43a11.52 11.52 0 0 1 9.24 4.45v-3.87h6.35v28.88h-6.35V46.3a11.52 11.52 0 0 1-9.24 4.45c-7.92 0-13.93-6.76-13.93-15s6.01-15.04 13.93-15.04zm1.15 5.77c-5.14 0-8.61 4.05-8.61 9.25s3.47 9.27 8.61 9.27 8.61-4 8.61-9.24-3.47-9.28-8.61-9.28zm32.58-5.77a11.51 11.51 0 0 1 9.24 4.45V8.56h6.36v41.61h-6.36V46.3a11.51 11.51 0 0 1-9.24 4.45c-7.91 0-13.92-6.76-13.92-15s6.01-15.04 13.92-15.04zm1.16 5.77c-5.14 0-8.61 4.05-8.61 9.25s3.47 9.27 8.61 9.27 8.6-4 8.6-9.24-3.46-9.28-8.6-9.28zm32.61-5.77a11.52 11.52 0 0 1 9.24 4.45v-3.87h6.36v28.88h-6.36V46.3a11.52 11.52 0 0 1-9.24 4.45c-7.91 0-13.92-6.76-13.92-15s6.01-15.04 13.92-15.04zm1.17 5.77c-5.14 0-8.6 4.05-8.6 9.25S280.84 45 286 45s8.61-4 8.61-9.24-3.48-9.28-8.61-9.28z" style="fill:#0f146d"/><path d="M129.24 100.91c.51 4.13 4.36 6.14 8.09 6.14s6.84-2 6.84-5.17c0-2.75-1.78-4.71-5.63-6l-5-1.66c-6.43-2.07-10-5.8-10-11.78-.06-7.06 5.34-11.31 13-11.31 8.5 0 13.15 6 13.55 11.66h-6.72a6.86 6.86 0 0 0-7-5.4c-3.38 0-6.08 1.78-6.14 4.71s1.89 4.59 5.51 5.8l5.06 1.61c6.37 2.06 10.1 5.91 10.1 12.11 0 6.89-5.51 11.66-13.55 11.66-9.13 0-14.59-6-14.87-12.4zm38.81 12.28c-8.55 0-14.7-6.31-14.7-14.92s5.92-14.93 14.76-14.93 14.89 6.71 14.35 16.48h-22.85c.23 4.36 3.56 7.8 8.67 7.8 3.16 0 5.92-1.26 7.24-4h6.6c-1.61 5.38-6.78 9.57-14.07 9.57zm-8.21-17.85h15.85c-1-4.65-4.25-6.72-7.75-6.72a7.86 7.86 0 0 0-8.1 6.72zm26.81-25.78H193v43.06h-6.32zm12.52 0h6.32v43.06h-6.32zm25.21 43.63c-8.56 0-14.7-6.31-14.7-14.92s5.91-14.93 14.76-14.93 14.93 6.71 14.35 16.48h-22.85c.23 4.36 3.56 7.8 8.67 7.8 3.16 0 5.91-1.26 7.23-4h6.61c-1.61 5.38-6.78 9.57-14.07 9.57zm-8.21-17.85H232c-1-4.65-4.25-6.72-7.76-6.72a7.86 7.86 0 0 0-8.07 6.72zM243 83.91h6.32V89a8.08 8.08 0 0 1 7.58-5.4 12.55 12.55 0 0 1 2.47.23v6.49a10 10 0 0 0-3.16-.52c-3.62 0-6.89 3.05-6.89 8.79v14H243zm48.73-12.75c9.82 0 17.69 6.38 19.64 14.36h-7.24c-1.72-4.65-6.66-7.87-12.4-7.87-8.5 0-14.47 6.37-14.47 14.59s6 14.58 14.47 14.58c5.74 0 10.68-3.21 12.4-7.87h7.24c-1.95 8-9.82 14.36-19.64 14.36a21.08 21.08 0 1 1 0-42.15zm36.06 42.03c-8.56 0-14.7-6.31-14.7-14.92s5.91-14.93 14.76-14.93 14.93 6.71 14.35 16.48h-22.85c.23 4.36 3.56 7.8 8.67 7.8 3.16 0 5.91-1.26 7.24-4h6.6c-1.61 5.38-6.78 9.57-14.07 9.57zm-8.21-17.85h15.85c-1-4.65-4.25-6.72-7.75-6.72a7.86 7.86 0 0 0-8.1 6.72zm26.81-11.43h6.32v3.9a9.88 9.88 0 0 1 8.73-4.47c6.66 0 11 4.7 11 12v17.28h-6.32V96.37c0-4.54-2.3-7.29-6-7.29-4.19 0-7.41 3.27-7.41 9.42v14.12h-6.32zm43.93 29c-5.51 0-9.82-3-9.82-9.53V89.54h-6v-5.63h6v-8h6.32v8H395v5.63h-8.21v12.8c0 3.56 1.55 4.88 4.82 4.88a10.32 10.32 0 0 0 3.39-.57v5.63a15.37 15.37 0 0 1-4.68.63zm20.68.28c-8.55 0-14.7-6.31-14.7-14.92s5.92-14.93 14.76-14.93 14.94 6.71 14.35 16.48h-22.86c.23 4.36 3.56 7.8 8.67 7.8 3.16 0 5.92-1.26 7.24-4h6.6c-1.61 5.38-6.78 9.57-14.06 9.57zm-8.21-17.85h15.85c-1-4.65-4.25-6.72-7.75-6.72a7.87 7.87 0 0 0-8.11 6.72zm26.81-11.43h6.31V89a8.09 8.09 0 0 1 7.58-5.4 12.49 12.49 0 0 1 2.47.23v6.49a10 10 0 0 0-3.16-.52c-3.62 0-6.89 3.05-6.89 8.79v14h-6.31z" style="fill:#1e71ff"/><path d="M95.19 11.4C94.5 11 79.26 1.65 77.05.4a3.1 3.1 0 0 0-1.48-.4 2.85 2.85 0 0 0-1.38.36C74 .47 57.6 10.83 55 12.19a13.21 13.21 0 0 1-6.59 1.6 13.83 13.83 0 0 1-5.94-1.23C39.9 11.55 22.73.38 22.7.36A2.73 2.73 0 0 0 21.32 0a3.07 3.07 0 0 0-1.47.4C17.9 1.5 5.64 9 1.93 11.26l-.25.15a3.65 3.65 0 0 0-1.68 3V47.8a3.45 3.45 0 0 0 2.06 2.74c1.44.79 39.35 24.57 44.46 27.52a3.84 3.84 0 0 0 3.86 0c5.13-3 43-26.73 44.46-27.52a3.49 3.49 0 0 0 2.06-2.74V14.45a3.53 3.53 0 0 0-1.71-3.05z" style="fill:#201adc"/><path d="M45 21.69v2.09c-5.44 1.33-9.37 5.08-9.37 9.49A8.74 8.74 0 0 0 39.19 40a15.79 15.79 0 0 0 7.94 3.14v-6c-2.65-.57-4.62-2.13-4.62-3.92s2-3.35 4.62-3.92v-7.61z" style="fill:#f0f"/><path d="M52.17 23.84v-2.15H50v7.72c2.54.61 4.39 2.13 4.39 3.86h6.93c-.01-4.35-3.83-8.05-9.15-9.43zM40.9 48H34c0 2.94 1.77 5.76 4.86 7.74A18 18 0 0 0 45 58.13V60h2.17v-7.5c-3.58-.5-6.27-2.38-6.27-4.5zm22.02 0c0-2.92-1.78-5.72-4.85-7.7l-.37-.3a18.89 18.89 0 0 0-7.7-2.44v5.94c3.41.6 6 2.39 6 4.45 0 2.08-2.58 3.89-6 4.49V60h2.18v-1.92a18 18 0 0 0 5.9-2.35c3.08-2 4.85-4.8 4.85-7.74z" style="fill:#fff"/></g></g></svg>